<svg width="376" height="281" viewBox="0 0 376 281" fill="none" xmlns="http://www.w3.org/2000/svg">
<g opacity="0.2">
<mask id="mask0_5_213" style="mask-type:alpha" maskUnits="userSpaceOnUse" x="0" y="0" width="376" height="281">
<rect x="0.877106" y="0.0296631" width="375" height="280" fill="url(#paint0_linear_5_213)"/>
</mask>
<g mask="url(#mask0_5_213)">
<path d="M375.548 200.91C379.192 204.553 379.192 210.46 375.548 214.103C371.905 217.746 365.999 217.746 362.356 214.103L318.593 170.34C314.95 166.697 314.95 160.79 318.593 157.147C322.236 153.504 328.143 153.504 331.786 157.147L375.548 200.91Z" fill="#F46F17"/>
<path d="M254.7 239.015C248.731 236.267 247.327 228.413 251.973 223.767C254.816 220.924 259.148 220.194 262.765 221.947L268.235 224.599C283.1 231.805 298.634 216.046 291.216 201.285L288.547 195.976C286.794 192.487 287.474 188.266 290.235 185.505C294.645 181.095 302.089 182.358 304.797 187.976L331.374 243.104C334.33 249.235 333.086 256.565 328.274 261.377C323.535 266.116 316.345 267.402 310.257 264.598L254.7 239.015Z" fill="#121212" fill-opacity="0.25"/>
<path d="M389.217 182.459C391.966 188.427 399.819 189.832 404.466 185.185C407.309 182.342 408.039 178.011 406.285 174.393L403.634 168.924C396.428 154.058 412.187 138.524 426.947 145.943L432.257 148.611C435.746 150.365 439.966 149.685 442.728 146.923C447.138 142.513 445.875 135.07 440.257 132.361L385.128 105.784C378.997 102.829 371.668 104.072 366.855 108.885C362.116 113.624 360.831 120.814 363.634 126.902L389.217 182.459Z" fill="#121212" fill-opacity="0.5"/>
<path d="M232.569 339.107C235.318 345.075 243.171 346.48 247.818 341.833C250.66 338.991 251.391 334.659 249.637 331.041L246.986 325.572C239.78 310.706 255.539 295.172 270.299 302.591L275.608 305.26C279.098 307.013 283.318 306.333 286.08 303.572C290.49 299.161 289.226 291.718 283.608 289.009L228.48 262.432C222.349 259.477 215.02 260.72 210.207 265.533C205.468 270.272 204.183 277.462 206.986 283.55L232.569 339.107Z" fill="#121212" fill-opacity="0.5"/>
<path d="M236.339 61.7007C239.982 65.3437 239.982 71.2502 236.339 74.8932C232.696 78.5362 226.79 78.5363 223.147 74.8932L179.384 31.1304C175.741 27.4874 175.741 21.5809 179.384 17.9379C183.027 14.2948 188.933 14.2948 192.576 17.9379L236.339 61.7007Z" fill="#F46F17"/>
<path d="M79.691 218.349C83.334 221.992 83.334 227.898 79.691 231.541C76.048 235.184 70.1415 235.184 66.4984 231.541L22.7357 187.779C19.0926 184.136 19.0926 178.229 22.7357 174.586C26.3787 170.943 32.2852 170.943 35.9282 174.586L79.691 218.349Z" fill="#F46F17"/>
<path d="M115.491 99.806C109.522 97.0576 108.118 89.2038 112.764 84.5574C115.607 81.7146 119.938 80.9844 123.556 82.7381L129.026 85.3893C143.891 92.5952 159.425 76.8364 152.006 62.076L149.338 56.7667C147.584 53.2775 148.265 49.057 151.026 46.2956C155.436 41.8855 162.88 43.1487 165.588 48.7666L192.165 103.895C195.121 110.026 193.877 117.355 189.064 122.168C184.325 126.907 177.136 128.192 171.048 125.389L115.491 99.806Z" fill="#121212" fill-opacity="0.25"/>
<path d="M250.008 43.2495C252.756 49.218 260.61 50.6222 265.256 45.9759C268.099 43.1331 268.83 38.8017 267.076 35.184L264.425 29.7145C257.219 14.849 272.977 -0.685001 287.738 6.73366L293.047 9.40212C296.536 11.1558 300.757 10.4755 303.518 7.71407C307.928 3.30401 306.665 -4.13967 301.047 -6.84807L245.919 -33.4252C239.788 -36.3808 232.459 -35.1371 227.646 -30.3245C222.907 -25.5853 221.621 -18.3956 224.425 -12.3078L250.008 43.2495Z" fill="#121212" fill-opacity="0.5"/>
<path d="M93.3598 199.898C96.1082 205.866 103.962 207.27 108.608 202.624C111.451 199.781 112.181 195.45 110.428 191.832L107.776 186.363C100.571 171.497 116.329 155.963 131.09 163.382L136.399 166.05C139.888 167.804 144.109 167.124 146.87 164.362C151.28 159.952 150.017 152.508 144.399 149.8L89.2707 123.223C83.1399 120.267 75.8106 121.511 70.998 126.324C66.2588 131.063 64.9733 138.253 67.7766 144.34L93.3598 199.898Z" fill="#121212" fill-opacity="0.5"/>
<path d="M308.791 40.7266C305.148 37.0836 299.242 37.0836 295.599 40.7267C291.956 44.3697 291.956 50.2762 295.599 53.9192L339.362 97.682C343.005 101.325 348.911 101.325 352.554 97.682C356.197 94.039 356.197 88.1325 352.554 84.4894L308.791 40.7266Z" fill="#F46F17"/>
<path d="M152.143 197.375C148.5 193.732 142.594 193.732 138.951 197.375C135.308 201.018 135.308 206.924 138.951 210.567L182.713 254.33C186.356 257.973 192.263 257.973 195.906 254.33C199.549 250.687 199.549 244.781 195.906 241.138L152.143 197.375Z" fill="#F46F17"/>
<path d="M270.686 161.575C273.434 167.544 281.288 168.948 285.935 164.302C288.777 161.459 289.508 157.127 287.754 153.51L285.103 148.04C277.897 133.175 293.656 117.641 308.416 125.059L313.725 127.728C317.215 129.482 321.435 128.801 324.196 126.04C328.606 121.63 327.343 114.186 321.725 111.478L266.597 84.9007C260.466 81.945 253.137 83.1887 248.324 88.0013C243.585 92.7405 242.3 99.9302 245.103 106.018L270.686 161.575Z" fill="#121212" fill-opacity="0.25"/>
<path d="M114.038 318.223C116.786 324.192 124.64 325.596 129.286 320.95C132.129 318.107 132.859 313.776 131.106 310.158L128.454 304.688C121.249 289.823 137.007 274.289 151.768 281.708L157.077 284.376C160.566 286.13 164.787 285.449 167.548 282.688C171.958 278.278 170.695 270.834 165.077 268.126L109.949 241.549C103.818 238.593 96.4886 239.837 91.676 244.65C86.9368 249.389 85.6513 256.578 88.4546 262.666L114.038 318.223Z" fill="#121212" fill-opacity="0.25"/>
<path d="M170.594 183.706C164.626 180.958 163.222 173.104 167.868 168.457C170.711 165.615 175.042 164.884 178.66 166.638L184.129 169.289C198.995 176.495 214.529 160.736 207.11 145.976L204.442 140.667C202.688 137.177 203.368 132.957 206.13 130.196C210.54 125.786 217.984 127.049 220.692 132.667L247.269 187.795C250.225 193.926 248.981 201.255 244.168 206.068C239.429 210.807 232.239 212.092 226.152 209.289L170.594 183.706Z" fill="#121212" fill-opacity="0.5"/>
<path d="M12.9339 58.1654C9.29086 54.5224 3.38436 54.5224 -0.258671 58.1654C-3.9017 61.8085 -3.9017 67.715 -0.258673 71.358L43.5041 115.121C47.1471 118.764 53.0536 118.764 56.6967 115.121C60.3397 111.478 60.3397 105.571 56.6967 101.928L12.9339 58.1654Z" fill="#F46F17"/>
<path d="M131.477 22.3659C134.225 28.3344 142.079 29.7387 146.725 25.0924C149.568 22.2496 150.298 17.9181 148.545 14.3004L145.893 8.83091C138.687 -6.03458 154.446 -21.5685 169.207 -14.1499L174.516 -11.4814C178.005 -9.7277 182.226 -10.4081 184.987 -13.1695C189.397 -17.5795 188.134 -25.0232 182.516 -27.7316L127.388 -54.3087C121.257 -57.2643 113.927 -56.0206 109.115 -51.208C104.376 -46.4688 103.09 -39.2792 105.894 -33.1914L131.477 22.3659Z" fill="#121212" fill-opacity="0.25"/>
<path d="M-25.1715 179.014C-22.4231 184.983 -14.5693 186.387 -9.92298 181.741C-7.08019 178.898 -6.34996 174.566 -8.10359 170.949L-10.7549 165.479C-17.9607 150.614 -2.20196 135.08 12.5585 142.498L17.8677 145.167C21.357 146.92 25.5775 146.24 28.3389 143.479C32.7489 139.069 31.4858 131.625 25.8678 128.917L-29.2606 102.339C-35.3914 99.3839 -42.7207 100.628 -47.5333 105.44C-52.2725 110.179 -53.558 117.369 -50.7547 123.457L-25.1715 179.014Z" fill="#121212" fill-opacity="0.25"/>
<path d="M31.3851 44.4966C25.4166 41.7482 24.0123 33.8944 28.6587 29.2481C31.5014 26.4053 35.8329 25.6751 39.4506 27.4287L44.9201 30.08C59.7856 37.2859 75.3196 21.5271 67.9009 6.76666L65.2324 1.45741C63.4787 -2.03187 64.1591 -6.25233 66.9205 -9.01372C71.3305 -13.4238 78.7742 -12.1607 81.4826 -6.54268L108.06 48.5857C111.015 54.7165 109.772 62.0458 104.959 66.8584C100.22 71.5976 93.0302 72.8831 86.9424 70.0798L31.3851 44.4966Z" fill="#121212" fill-opacity="0.5"/>
</g>
</g>
<defs>
<linearGradient id="paint0_linear_5_213" x1="375.877" y1="0.0296481" x2="0.877097" y2="280.03" gradientUnits="userSpaceOnUse">
<stop stop-color="#D9D9D9"/>
<stop offset="0.610726" stop-color="#D9D9D9" stop-opacity="0"/>
</linearGradient>
</defs>
</svg>
