<svg width="24" height="24" viewBox="0 0 24 24" fill="none" xmlns="http://www.w3.org/2000/svg">
<path d="M16.9153 17.5213C15.5008 18.5799 13.7784 19.1665 12 19.195C6.2076 19.195 2.89764 12.695 2.89764 12.695C3.92695 10.8116 5.35457 9.16602 7.08473 7.86878M10.2623 6.39003C10.8319 6.25912 11.415 6.19368 12 6.19503C17.7924 6.19503 21.1024 12.695 21.1024 12.695C20.6001 13.6177 20.001 14.4864 19.315 15.2869M13.7543 14.4175C13.527 14.657 13.253 14.8491 12.9484 14.9823C12.6439 15.1155 12.3152 15.1872 11.9819 15.1929C11.6486 15.1987 11.3175 15.1385 11.0084 15.0159C10.6992 14.8933 10.4185 14.7109 10.1827 14.4794C9.94699 14.2479 9.76116 13.9722 9.6363 13.6687C9.51145 13.3652 9.45013 13.0401 9.45601 12.7128C9.46189 12.3855 9.53485 12.0628 9.67053 11.7638C9.80621 11.4648 10.0018 11.1957 10.2457 10.9725" stroke="#363636" stroke-width="2" stroke-linecap="round" stroke-linejoin="round"/>
<path d="M3.9303 4.5L19.7839 19.5" stroke="#363636" stroke-width="2" stroke-linecap="round" stroke-linejoin="round"/>
</svg>
